<svg xmlns="http://www.w3.org/2000/svg" width="29" height="19" viewBox="0 0 29 19" fill="none">
  <path opacity="0.07" d="M26.6953 0H2.61607C1.33686 0 0.358643 0.978218 0.358643 2.25743V15.802C0.358643 17.0812 1.41211 18.0594 2.61607 18.0594H26.6953C27.9745 18.0594 28.9527 17.0812 28.9527 15.802V2.25743C28.9527 0.978218 27.8992 0 26.6953 0Z" fill="#181D23"/>
  <path d="M26.6949 0.75293C27.5226 0.75293 28.1998 1.43016 28.1998 2.25788V15.8024C28.1998 16.6302 27.5226 17.3074 26.6949 17.3074H2.61567C1.78795 17.3074 1.11072 16.6302 1.11072 15.8024V2.25788C1.11072 1.43016 1.78795 0.75293 2.61567 0.75293H26.6949Z" fill="#006FCF"/>
  <path d="M7.10872 7.72614L7.69113 9.13779H6.53082L7.10872 7.72614ZM19.2048 7.78484H16.9646V8.40714H19.1686V9.33945H16.9692V10.0332H19.2093V10.5893L20.7722 8.90001L19.2093 7.13921L19.2048 7.78484ZM8.6227 6.02405H11.6288L12.2963 7.48009L12.9148 6.01953H20.718L21.5292 6.91498L22.3682 6.01953H25.9522L23.3042 8.91807L25.9251 11.7985H22.2876L21.4765 10.9031L20.6299 11.7985H7.90559L7.53387 10.9031H6.68357L6.31109 11.7985H3.36816L5.8408 6.01953H8.42179L8.6227 6.02405ZM15.1414 6.83521H13.4566L12.3279 9.49597L11.1051 6.83521H9.43312V10.4546L7.88302 6.83521H6.38333L4.59094 10.9829H5.76104L6.13276 10.0874H8.08618L8.45791 10.9829H10.5046V8.02187L11.8222 10.9874H12.7177L14.027 8.0309V10.9881H15.1241L15.1421 6.83446L15.1414 6.83521ZM22.1695 8.91807L24.074 6.83521H22.703L21.4983 8.13399L20.3335 6.83521H15.8984V10.9874H20.2703L21.4848 9.67957L22.6496 10.9874H24.0605L22.1695 8.91807Z" fill="white"/>
</svg>