<svg width="36" height="36" viewBox="0 0 36 36" fill="none" xmlns="http://www.w3.org/2000/svg">
<g id="cart-large-minimalistic_svgrepo.com">
<path id="Vector" d="M11.25 27C12.4926 27 13.5 28.0074 13.5 29.25C13.5 30.4926 12.4926 31.5 11.25 31.5C10.0074 31.5 9 30.4926 9 29.25C9 28.0074 10.0074 27 11.25 27Z" fill="#F7F5EE" stroke="#F7F5EE" stroke-width="1.5"/>
<path id="Vector_2" d="M24.75 27.0001C25.9926 27.0001 27 28.0074 27 29.2501C27 30.4927 25.9926 31.5001 24.75 31.5001C23.5074 31.5001 22.5 30.4927 22.5 29.2501C22.5 28.0074 23.5074 27.0001 24.75 27.0001Z" fill="#F7F5EE" stroke="#F7F5EE" stroke-width="1.5"/>
<path id="Vector_3" d="M3.3732 3.43869C2.78704 3.2326 2.14482 3.54072 1.93875 4.12686C1.73266 4.71301 2.04078 5.35524 2.62692 5.56131L3.3732 3.43869ZM30.9868 14.8241L32.0885 15.0513L32.09 15.0444L30.9868 14.8241ZM8.56218 14.64V10.5575H6.31218V14.64H8.56218ZM3.76501 3.57643L3.3732 3.43869L2.62692 5.56131L3.01873 5.69907L3.76501 3.57643ZM16.4063 24.375H24.3607V22.125H16.4063V24.375ZM8.56218 10.5575C8.56218 9.4968 8.56371 8.61165 8.48584 7.89235C8.40525 7.14778 8.23063 6.4687 7.80766 5.84974L5.94997 7.11919C6.08536 7.31733 6.18991 7.58946 6.24891 8.13448C6.31065 8.7048 6.31218 9.44761 6.31218 10.5575H8.56218ZM3.01873 5.69907C4.02015 6.05115 4.67827 6.28447 5.16255 6.52209C5.61738 6.74526 5.81788 6.9259 5.94997 7.11919L7.80766 5.84974C7.38139 5.22595 6.81462 4.82644 6.15367 4.50214C5.52214 4.19227 4.71598 3.91078 3.76501 3.57643L3.01873 5.69907ZM6.31218 14.64C6.31218 16.8187 6.33262 18.3898 6.5382 19.5901C6.75768 20.8716 7.19589 21.7891 8.01523 22.6533L9.64803 21.1053C9.16779 20.5987 8.90875 20.1027 8.7559 19.2103C8.58916 18.2367 8.56218 16.8735 8.56218 14.64H6.31218ZM16.4063 22.125C14.2811 22.125 12.8065 22.1223 11.6955 21.9648C10.6233 21.8127 10.0568 21.5364 9.64803 21.1053L8.01523 22.6533C8.90602 23.5929 10.0352 24.0019 11.3796 24.1924C12.6852 24.3777 14.3481 24.375 16.4063 24.375V22.125ZM7.43718 10.305H25.6333V8.055H7.43718V10.305ZM29.8849 14.597L29.1353 18.2341L31.339 18.6883L32.0885 15.0513L29.8849 14.597ZM25.6333 10.305C26.9179 10.305 28.0484 10.3065 28.9406 10.4062C29.384 10.4558 29.7158 10.5246 29.9489 10.6066C30.191 10.6916 30.2296 10.7569 30.2102 10.7316L31.9936 9.35967C31.6411 8.90154 31.1455 8.64217 30.6949 8.4838C30.2351 8.32227 29.7152 8.2288 29.1907 8.17017C28.147 8.0535 26.8762 8.055 25.6333 8.055V10.305ZM32.09 15.0444C32.3438 13.7725 32.5594 12.7054 32.6122 11.8506C32.6663 10.9713 32.5663 10.1043 31.9936 9.35967L30.2102 10.7316C30.3032 10.8526 30.406 11.0706 30.3664 11.712C30.3253 12.3779 30.1504 13.2672 29.8835 14.6039L32.09 15.0444ZM24.3607 24.375C25.5032 24.375 26.462 24.3769 27.235 24.2823C28.0385 24.184 28.7714 23.9691 29.4112 23.4477L27.9898 21.7035C27.802 21.8565 27.5357 21.9787 26.9617 22.0491C26.3569 22.123 25.5596 22.125 24.3607 22.125V24.375ZM29.1353 18.2341C28.8932 19.4083 28.7303 20.1889 28.5358 20.7663C28.3511 21.3142 28.1776 21.5505 27.9898 21.7035L29.4112 23.4477C30.0509 22.9263 30.4094 22.2519 30.668 21.4848C30.9167 20.7468 31.1083 19.8074 31.339 18.6883L29.1353 18.2341Z" fill="#F7F5EE"/>
</g>
</svg>

