<svg xmlns="http://www.w3.org/2000/svg" width="30" height="19" viewBox="0 0 30 19" fill="none">
  <path opacity="0.07" d="M27.0747 0H2.99546C1.71625 0 0.738037 0.978218 0.738037 2.25743V15.802C0.738037 17.0812 1.7915 18.0594 2.99546 18.0594H27.0747C28.3539 18.0594 29.3321 17.0812 29.3321 15.802V2.25743C29.3321 0.978218 28.2786 0 27.0747 0Z" fill="#181D23"/>
  <path d="M27.0745 0.75293C27.9022 0.75293 28.5795 1.43016 28.5795 2.25788V15.8024C28.5795 16.6302 27.9022 17.3074 27.0745 17.3074H2.99531C2.16758 17.3074 1.49036 16.6302 1.49036 15.8024V2.25788C1.49036 1.43016 2.16758 0.75293 2.99531 0.75293H27.0745Z" fill="white"/>
  <path d="M9.76806 9.03002V11.8142C9.76806 12.0399 9.61757 12.0399 9.39182 11.9647C7.96212 11.3627 7.1344 9.48151 7.66113 7.90131C7.96212 7.07359 8.5641 6.39636 9.39182 6.09537C9.69281 5.94487 9.76806 6.02012 9.76806 6.24586V9.03002ZM11.273 9.03002V6.24586C11.273 6.02012 11.273 6.02012 11.4988 6.09537C13.079 6.69735 13.9067 8.57854 13.3047 10.1587C13.0037 10.9865 12.4017 11.6637 11.574 11.9647C11.273 12.1152 11.273 12.0399 11.273 11.8142V9.03002ZM16.6908 3.7627H10.5205C13.3799 3.7627 15.6374 6.09537 15.6374 9.03002C15.6374 11.9647 13.3799 14.2973 10.5205 14.2973H16.6908C19.5502 14.2973 21.8077 11.9647 21.8077 9.03002C21.8077 6.09537 19.5502 3.7627 16.6908 3.7627Z" fill="#3086C8"/>
</svg>