<svg xmlns="http://www.w3.org/2000/svg" width="30" height="19" viewBox="0 0 30 19" fill="none">
  <path opacity="0.07" d="M26.7646 0H2.6854C1.4062 0 0.427979 0.978218 0.427979 2.25743V15.802C0.427979 17.0812 1.48144 18.0594 2.6854 18.0594H26.7646C28.0438 18.0594 29.022 17.0812 29.022 15.802V2.25743C29.022 0.978218 27.9686 0 26.7646 0Z" fill="#181D23"/>
  <path d="M26.7649 0.75293C27.5927 0.75293 28.2699 1.43016 28.2699 2.25788V15.8024C28.2699 16.6302 27.5927 17.3074 26.7649 17.3074H2.68574C1.85801 17.3074 1.18079 16.6302 1.18079 15.8024V2.25788C1.18079 1.43016 1.85801 0.75293 2.68574 0.75293H26.7649Z" fill="white"/>
  <path d="M3.11461 5.38766H1.93323V9.52627H3.11461C3.73917 9.52627 4.19065 9.37578 4.58947 9.05221C5.06352 8.66093 5.34194 8.074 5.34194 7.46449C5.33442 6.23796 4.42392 5.38766 3.11461 5.38766ZM4.06273 8.50291C3.80689 8.72865 3.48333 8.834 2.95659 8.834H2.73838V6.09499H2.95659C3.4758 6.09499 3.79184 6.18528 4.06273 6.42608C4.34115 6.67439 4.50669 7.05816 4.50669 7.45697C4.50669 7.85578 4.34115 8.25459 4.06273 8.50291ZM5.71065 5.38766H6.5158V9.52627H5.71065V5.38766ZM8.48729 6.97538C8.0057 6.79479 7.86273 6.67439 7.86273 6.45618C7.86273 6.19281 8.11857 5.99717 8.46471 5.99717C8.7055 5.99717 8.90867 6.09499 9.11184 6.33578L9.53323 5.78647C9.18709 5.48548 8.77323 5.32746 8.31422 5.32746C7.58432 5.32746 7.01996 5.83915 7.01996 6.51637C7.01996 7.08825 7.28333 7.38172 8.0358 7.65261C8.35184 7.76548 8.50986 7.84073 8.59263 7.88588C8.75065 7.99122 8.83343 8.14172 8.83343 8.31479C8.83343 8.6534 8.57006 8.90172 8.20887 8.90172C7.82511 8.90172 7.51659 8.70608 7.32847 8.35241L6.80927 8.85657C7.17798 9.40588 7.62947 9.64667 8.23897 9.64667C9.07422 9.64667 9.66867 9.08984 9.66867 8.28469C9.68372 7.61499 9.40531 7.314 8.48729 6.97538ZM9.93204 7.46449C9.93204 8.6835 10.8877 9.6241 12.1142 9.6241C12.4604 9.6241 12.7613 9.55637 13.1225 9.3833V8.43519C12.799 8.75875 12.513 8.88667 12.1518 8.88667C11.3392 8.88667 10.7598 8.29974 10.7598 7.45697C10.7598 6.65934 11.3542 6.03479 12.1142 6.03479C12.498 6.03479 12.7914 6.17023 13.1225 6.50132V5.55321C12.7689 5.37261 12.4754 5.29736 12.1293 5.29736C10.9178 5.29736 9.93204 6.26053 9.93204 7.46449ZM19.5336 8.17182L18.4275 5.38766H17.5471L19.3004 9.63162H19.7368L21.5202 5.38766H20.6473L19.5336 8.17182ZM21.8889 9.52627H24.1764V8.82647H22.694V7.71281H24.1237V7.01301H22.694V6.09499H24.1764V5.38766H21.8889V9.52627ZM27.3744 6.6142C27.3744 5.83915 26.8402 5.39519 25.9071 5.39519H24.7107V9.5338H25.5158V7.87083H25.6211L26.7348 9.5338H27.7281L26.4263 7.78806C27.0358 7.66014 27.3744 7.24627 27.3744 6.6142ZM25.7491 7.29895H25.5158V6.04231H25.7641C26.2683 6.04231 26.5392 6.25301 26.5392 6.65934C26.5392 7.07321 26.2683 7.29895 25.7491 7.29895Z" fill="#181D23"/>
  <path d="M15.5977 9.67712C16.1827 9.67712 16.7436 9.44476 17.1572 9.03115C17.5709 8.61753 17.8032 8.05655 17.8032 7.47162C17.8032 6.88668 17.5709 6.3257 17.1572 5.91209C16.7436 5.49848 16.1827 5.26611 15.5977 5.26611C15.0128 5.26611 14.4518 5.49848 14.0382 5.91209C13.6246 6.3257 13.3922 6.88668 13.3922 7.47162C13.3922 8.05655 13.6246 8.61753 14.0382 9.03115C14.4518 9.44476 15.0128 9.67712 15.5977 9.67712Z" fill="url(#paint0_linear_284_81)"/>
  <path opacity="0.65" d="M15.5977 9.67712C16.1827 9.67712 16.7436 9.44476 17.1572 9.03115C17.5709 8.61753 17.8032 8.05655 17.8032 7.47162C17.8032 6.88668 17.5709 6.3257 17.1572 5.91209C16.7436 5.49848 16.1827 5.26611 15.5977 5.26611C15.0128 5.26611 14.4518 5.49848 14.0382 5.91209C13.6246 6.3257 13.3922 6.88668 13.3922 7.47162C13.3922 8.05655 13.6246 8.61753 14.0382 9.03115C14.4518 9.44476 15.0128 9.67712 15.5977 9.67712Z" fill="url(#paint1_linear_284_81)"/>
  <path d="M27.9465 5.64852C27.9465 5.57327 27.8938 5.53564 27.8111 5.53564H27.6907V5.89683H27.781V5.75386L27.8863 5.89683H27.9917L27.8713 5.74634C27.9164 5.73881 27.9465 5.70119 27.9465 5.64852ZM27.796 5.70119H27.781V5.60337H27.796C27.8412 5.60337 27.8637 5.61842 27.8637 5.64852C27.8637 5.68614 27.8412 5.70119 27.796 5.70119Z" fill="#181D23"/>
  <path d="M27.8259 5.3999C27.6529 5.3999 27.5099 5.54287 27.5099 5.71594C27.5099 5.88901 27.6529 6.03198 27.8259 6.03198C27.999 6.03198 28.142 5.88901 28.142 5.71594C28.142 5.54287 27.999 5.3999 27.8259 5.3999ZM27.8259 5.97931C27.6905 5.97931 27.5701 5.86644 27.5701 5.71594C27.5701 5.57297 27.683 5.45258 27.8259 5.45258C27.9614 5.45258 28.0742 5.57297 28.0742 5.71594C28.0742 5.85891 27.9614 5.97931 27.8259 5.97931Z" fill="#181D23"/>
  <path d="M28.2694 9.77051C28.2694 9.77051 20.8123 14.9543 7.18201 17.3073H26.7637C27.1607 17.3073 27.5417 17.1504 27.8236 16.8708C28.1055 16.5911 28.2654 16.2114 28.2686 15.8144L28.2867 13.5419L28.2694 9.77051Z" fill="#F48120"/>
  <defs>
    <linearGradient id="paint0_linear_284_81" x1="16.7242" y1="9.23692" x2="15.2004" y2="6.85083" gradientUnits="userSpaceOnUse">
      <stop stop-color="#F89F20"/>
      <stop offset="0.25" stop-color="#F79A20"/>
      <stop offset="0.533" stop-color="#F68D20"/>
      <stop offset="0.62" stop-color="#F58720"/>
      <stop offset="0.723" stop-color="#F48120"/>
      <stop offset="1" stop-color="#F37521"/>
    </linearGradient>
    <linearGradient id="paint1_linear_284_81" x1="16.4841" y1="9.20457" x2="14.2568" y2="4.85075" gradientUnits="userSpaceOnUse">
      <stop stop-color="#F58720"/>
      <stop offset="0.359" stop-color="#E16F27"/>
      <stop offset="0.703" stop-color="#D4602C"/>
      <stop offset="0.982" stop-color="#D05B2E"/>
    </linearGradient>
  </defs>
</svg>