<svg xmlns="http://www.w3.org/2000/svg" width="200" height="70" viewBox="0 0 200 70" fill="none">
  <g clip-path="url(#clip0_284_2502)">
    <path d="M99.3277 70C90.0105 70 81.0265 66.0924 74.6762 59.2838C68.3259 52.4752 65.0616 43.2412 65.72 33.9597L68.08 0.64202C68.1038 0.281379 68.4092 0 68.7702 0H78.9798C79.1702 0 79.3566 0.0792617 79.4835 0.21797C79.6144 0.356678 79.6819 0.546906 79.666 0.737134L77.2544 34.7721C76.8181 40.9585 78.9044 46.8675 83.1366 51.4052C87.3688 55.9429 93.1202 58.4436 99.3277 58.4436C105.535 58.4436 111.286 55.9429 115.519 51.4052C119.751 46.8675 121.837 40.9585 121.401 34.7721L118.989 0.737134C118.977 0.546906 119.041 0.356678 119.172 0.21797C119.303 0.0792617 119.489 0 119.679 0H129.889C130.25 0 130.552 0.281379 130.579 0.64202L132.939 33.9597C133.598 43.2452 130.333 52.4752 123.983 59.2878C117.633 66.0964 108.649 70.004 99.3316 70.004L99.3277 70Z" fill="white"/>
    <path d="M144.922 67.4517C144.541 67.4517 144.232 67.1426 144.232 66.7621V25.9384C144.232 11.7862 155.754 0.273438 169.919 0.273438H199.31C199.691 0.273438 200 0.582558 200 0.963015V11.0372C200 11.4176 199.691 11.7268 199.31 11.7268H169.641C162.216 11.7268 156.099 17.5248 155.715 24.9278V24.9555C155.703 25.1894 155.695 25.4232 155.695 25.661V32.747C155.695 33.0006 155.901 33.2067 156.155 33.2067H187.204C187.656 33.2067 188.021 33.5752 188.021 34.0231V43.7366C188.021 44.1884 187.652 44.553 187.204 44.553H156.155C155.901 44.553 155.695 44.7591 155.695 45.0127V66.7582C155.695 67.1386 155.385 67.4478 155.005 67.4478H144.922V67.4517Z" fill="white"/>
    <path d="M50.711 48.9679C43.0954 43.5979 33.9766 40.907 25.9326 38.5331L25.1235 38.2953C24.703 38.1685 24.2548 38.0417 23.7788 37.9109C22.9578 37.681 22.0257 37.4195 21.1094 37.1143L20.1019 36.7774C19.9036 36.7101 19.8243 36.5397 19.8203 36.4049C19.8203 36.3772 19.8203 36.3217 19.8402 36.2583C23.7233 34.8752 29.3874 32.5726 35.0951 29.2595C48.5056 21.4601 55.9348 11.6039 56.7043 0.649946C56.7281 0.297231 56.4425 0 56.0895 0H46.1139C45.7966 0 45.5387 0.241748 45.503 0.554832C44.7177 7.43871 39.4026 13.8074 29.665 19.5103C21.1808 24.48 12.4745 26.949 11.9509 27.0956C11.6098 27.1828 11.2766 26.9252 11.2766 26.5725V0.689577C11.2766 0.309121 10.9672 0 10.5864 0H8.9602H0.690161C0.309383 0 0 0.309121 0 0.689577V66.6433C0 67.0237 0.309383 67.3328 0.690161 67.3328H10.5864C10.9672 67.3328 11.2766 67.0237 11.2766 66.6433V46.9428C11.2766 46.598 11.467 46.2651 11.7843 46.1383C11.9826 46.059 12.1928 46.059 12.3832 46.1343C15.4533 47.3153 18.8485 48.2783 22.0574 49.1621C36.055 53.1965 47.1253 57.0645 51.6828 66.9365C51.7938 67.1783 52.0397 67.3368 52.3055 67.3368H62.8086C62.9871 67.3368 63.1617 67.2813 63.2925 67.1624C63.4988 66.9722 63.5702 66.6987 63.4948 66.4451C61.3331 59.4186 57.0335 53.5413 50.703 48.9719L50.711 48.9679Z" fill="white"/>
  </g>
  <defs>
    <clipPath id="clip0_284_2502">
      <rect width="200" height="70" fill="white"/>
    </clipPath>
  </defs>
</svg>