<svg xmlns="http://www.w3.org/2000/svg" width="30" height="19" viewBox="0 0 30 19" fill="none">
  <path opacity="0.07" d="M27.0046 0H2.92539C1.64619 0 0.667969 0.978218 0.667969 2.25743V15.802C0.667969 17.0812 1.72143 18.0594 2.92539 18.0594H27.0046C28.2838 18.0594 29.262 17.0812 29.262 15.802V2.25743C29.262 0.978218 28.2086 0 27.0046 0Z" fill="#181D23"/>
  <path d="M27.0044 0.75293C27.8322 0.75293 28.5094 1.43016 28.5094 2.25788V15.8024C28.5094 16.6302 27.8322 17.3074 27.0044 17.3074H2.92524C2.09752 17.3074 1.42029 16.6302 1.42029 15.8024V2.25788C1.42029 1.43016 2.09752 0.75293 2.92524 0.75293H27.0044Z" fill="white"/>
  <path d="M11.9552 14.2969C14.8643 14.2969 17.2225 11.9386 17.2225 9.02953C17.2225 6.12047 14.8643 3.76221 11.9552 3.76221C9.04613 3.76221 6.68787 6.12047 6.68787 9.02953C6.68787 11.9386 9.04613 14.2969 11.9552 14.2969Z" fill="#EB001B"/>
  <path d="M17.9747 14.2969C20.8838 14.2969 23.2421 11.9386 23.2421 9.02953C23.2421 6.12047 20.8838 3.76221 17.9747 3.76221C15.0657 3.76221 12.7074 6.12047 12.7074 9.02953C12.7074 11.9386 15.0657 14.2969 17.9747 14.2969Z" fill="#F79E1B"/>
  <path d="M17.2222 9.02983C17.2222 7.22389 16.3193 5.64369 14.9648 4.74072C13.6104 5.71894 12.7074 7.29914 12.7074 9.02983C12.7074 10.7605 13.6104 12.416 14.9648 13.3189C16.3193 12.416 17.2222 10.8358 17.2222 9.02983Z" fill="#FF5F00"/>
</svg>