<svg xmlns="http://www.w3.org/2000/svg" width="29" height="19" viewBox="0 0 29 19" fill="none">
  <path opacity="0.07" d="M26.3846 0H2.3054C1.02619 0 0.0479736 0.978218 0.0479736 2.25743V15.802C0.0479736 17.0812 1.10144 18.0594 2.3054 18.0594H26.3846C27.6638 18.0594 28.642 17.0812 28.642 15.802V2.25743C28.642 0.978218 27.5886 0 26.3846 0Z" fill="#181D23"/>
  <path d="M26.3847 0.752441C27.2124 0.752441 27.8896 1.42967 27.8896 2.25739V15.8019C27.8896 16.6297 27.2124 17.3069 26.3847 17.3069H2.30549C1.47776 17.3069 0.800537 16.6297 0.800537 15.8019V2.25739C0.800537 1.42967 1.47776 0.752441 2.30549 0.752441H26.3847Z" fill="white"/>
  <path d="M18.0319 6.24538C18.1824 5.4929 18.0319 4.96617 17.5804 4.51468C17.1289 3.98795 16.3012 3.76221 15.2477 3.76221H12.1626C11.9369 3.76221 11.7864 3.9127 11.7111 4.13844L10.5824 11.7384C10.5824 11.8889 10.6576 12.0394 10.8081 12.0394H12.8398L13.1408 9.48102L14.4953 7.82557L18.0319 6.24538Z" fill="#003087"/>
  <path d="M18.0319 6.24512L17.8814 6.39561C17.5052 8.50254 16.2259 9.25502 14.42 9.25502H13.5923C13.3665 9.25502 13.216 9.40551 13.1408 9.63126L12.6893 12.5659L12.5388 13.3184C12.5388 13.4689 12.6141 13.6194 12.7646 13.6194H14.3448C14.5705 13.6194 14.721 13.4689 14.721 13.3184V13.2431L15.022 11.4372V11.3619C15.022 11.2115 15.2477 11.061 15.3982 11.061H15.624C17.2042 11.061 18.4081 10.459 18.7091 8.65304C18.8596 7.90056 18.7844 7.29858 18.4081 6.8471C18.3329 6.47086 18.1824 6.32036 18.0319 6.24512Z" fill="#3086C8"/>
  <path d="M17.5808 6.09488C17.5056 6.01964 17.4303 6.01964 17.3551 6.01964C17.2798 6.01964 17.2046 6.01964 17.1294 5.94439C16.9036 5.86914 16.6026 5.86914 16.3016 5.86914H14.0442C13.969 5.86914 13.8937 5.86914 13.8937 5.94439C13.7432 6.01964 13.668 6.09488 13.668 6.24538L13.1412 9.55627V9.63152C13.1412 9.40577 13.367 9.25528 13.5927 9.25528H14.5709C16.4521 9.25528 17.6561 8.5028 18.0323 6.39587V6.24538C17.9571 6.17013 17.8066 6.09488 17.6561 6.09488H17.5808Z" fill="#012169"/>
</svg>