<svg xmlns="http://www.w3.org/2000/svg" width="16" height="16" viewBox="0 0 16 16" fill="none">
  <path d="M9.78137 4.50873L3.72004 10.5694L3.60938 12.5661L5.60604 12.4554L11.6667 6.3934M9.78137 4.50873L10.68 3.60873C10.8039 3.48486 10.9509 3.3866 11.1127 3.31956C11.2745 3.25252 11.4479 3.21802 11.623 3.21802C11.7982 3.21802 11.9716 3.25252 12.1334 3.31956C12.2952 3.3866 12.4422 3.48486 12.566 3.60873C12.6899 3.73255 12.7882 3.87956 12.8552 4.04136C12.9223 4.20317 12.9568 4.37659 12.9568 4.55173C12.9568 4.72687 12.9223 4.9003 12.8552 5.0621C12.7882 5.2239 12.6899 5.37091 12.566 5.49473L11.6667 6.3934M9.78137 4.50873L11.6667 6.3934" stroke="#181D23" stroke-linecap="round" stroke-linejoin="round"/>
</svg>