<svg xmlns="http://www.w3.org/2000/svg" width="9" height="10" viewBox="0 0 9 10" fill="none">
  <path fill-rule="evenodd" clip-rule="evenodd" d="M5.25 1.25C5.25 1.05109 5.17098 0.860322 5.03033 0.719669C4.88968 0.579017 4.69891 0.5 4.5 0.5C4.30109 0.5 4.11032 0.579017 3.96967 0.719669C3.82902 0.860322 3.75 1.05109 3.75 1.25V4.25H0.75C0.551088 4.25 0.360322 4.32902 0.219669 4.46967C0.0790171 4.61032 0 4.80109 0 5C0 5.19891 0.0790171 5.38968 0.219669 5.53033C0.360322 5.67098 0.551088 5.75 0.75 5.75H3.75V8.75C3.75 8.94891 3.82902 9.13968 3.96967 9.28033C4.11032 9.42098 4.30109 9.5 4.5 9.5C4.69891 9.5 4.88968 9.42098 5.03033 9.28033C5.17098 9.13968 5.25 8.94891 5.25 8.75V5.75H8.25C8.44891 5.75 8.63968 5.67098 8.78033 5.53033C8.92098 5.38968 9 5.19891 9 5C9 4.80109 8.92098 4.61032 8.78033 4.46967C8.63968 4.32902 8.44891 4.25 8.25 4.25H5.25V1.25Z" fill="black"/>
</svg>