<svg xmlns="http://www.w3.org/2000/svg" width="72" height="31" viewBox="0 0 72 31" fill="none" data-animate-scale>
  <g clip-path="url(#clip0_710_713)">
    <path d="M69.1761 0.352051H2.82313C1.45866 0.352051 0.352539 1.45608 0.352539 2.81796V28.1816C0.352539 29.5435 1.45866 30.6475 2.82313 30.6475H69.1761C70.5405 30.6475 71.6467 29.5435 71.6467 28.1816V2.81796C71.6467 1.45608 70.5405 0.352051 69.1761 0.352051Z" fill="white" stroke="#A4A4A4" stroke-width="0.704545"/>
    <path d="M35.2787 11.4299C34.8855 11.2164 34.6836 11.0375 34.6836 10.7902C34.6836 10.4767 34.9639 10.2745 35.4022 10.2745C35.9126 10.2745 36.3686 10.4879 36.3686 10.4879L36.7286 9.38886C36.7286 9.38886 36.3968 9.13029 35.4248 9.13029C34.0709 9.13029 33.1328 9.90459 33.1328 10.9924C33.1328 11.6089 33.5705 12.0795 34.1556 12.4156C34.6272 12.6847 34.7959 12.8757 34.7959 13.1554C34.7959 13.4477 34.5601 13.6831 34.1218 13.6831C33.4688 13.6831 32.8526 13.3463 32.8526 13.3463L32.4707 14.4454C32.4707 14.4454 33.0404 14.8265 33.9982 14.8265C35.3916 14.8265 36.3912 14.1431 36.3912 12.9095C36.3912 12.2479 35.8858 11.7773 35.2787 11.4299ZM40.8283 9.11972C40.1436 9.11972 39.6043 9.44522 39.1886 9.9384L39.166 9.92713L39.7611 6.82079H38.2109L36.706 14.7258H38.2561L38.7728 12.0239C38.9747 11.0037 39.5027 10.3752 39.9975 10.3752C40.3455 10.3752 40.4803 10.6112 40.4803 10.948C40.4803 11.1608 40.4578 11.4187 40.4133 11.6314L39.8288 14.7265H41.3796L41.9867 11.5307C42.0537 11.1983 42.0913 10.8607 42.0989 10.5218C42.0982 9.64672 41.6373 9.11972 40.8283 9.11972ZM45.6029 9.11972C43.738 9.11972 42.5027 10.8015 42.5027 12.6742C42.5027 13.874 43.2439 14.8378 44.6366 14.8378C46.4676 14.8378 47.7036 13.2012 47.7036 11.2834C47.7036 10.1737 47.0521 9.11972 45.6029 9.11972ZM44.8392 13.65C44.3112 13.65 44.0867 13.2012 44.0867 12.6403C44.0867 11.7547 44.5469 10.3083 45.3898 10.3083C45.9403 10.3083 46.1196 10.7796 46.1196 11.239C46.1196 12.1922 45.6594 13.65 44.8392 13.65ZM51.6693 9.11972C50.6225 9.11972 50.0288 10.0392 50.0288 10.0392H50.0069L50.0966 9.2092H48.7258C48.6426 9.89643 48.5379 10.5809 48.4116 11.2615L47.3331 16.9233H48.8832L49.3102 14.6363H49.3441C49.3441 14.6363 49.6618 14.8378 50.254 14.8378C52.0738 14.8378 53.2646 12.9771 53.2646 11.0932C53.2646 10.0504 52.8036 9.11972 51.6693 9.11972ZM50.1862 13.6718C49.7839 13.6718 49.546 13.4477 49.546 13.4477L49.8043 12.0013C49.9843 11.0375 50.4891 10.3978 51.0283 10.3978C51.5006 10.3978 51.6467 10.8346 51.6467 11.2503C51.6467 12.2479 51.0523 13.6718 50.1862 13.6718ZM55.4775 6.8997C54.9834 6.8997 54.5902 7.29213 54.5902 7.79659C54.5902 8.25595 54.8825 8.57018 55.3201 8.57018H55.3427C55.8262 8.57018 56.2413 8.24468 56.2533 7.67329C56.2533 7.2252 55.9498 6.8997 55.4775 6.8997ZM53.3098 14.7258H54.8599L55.9159 9.24302H54.3545L53.3098 14.7258ZM59.8589 9.23175H58.7803L58.8368 8.97388C58.9265 8.44688 59.2413 7.97625 59.7573 7.97625C60.0333 7.97625 60.2514 8.05445 60.2514 8.05445L60.5549 6.84334C60.5549 6.84334 60.2853 6.70947 59.7128 6.70947C59.1622 6.70947 58.6116 6.86588 58.1959 7.2252C57.6679 7.67329 57.4208 8.32359 57.2973 8.97388L57.2528 9.23175H56.5328L56.3091 10.3985H57.0276L56.2081 14.7265H57.7582L58.5785 10.3985H59.6458L59.8589 9.23175ZM63.5888 9.24372C63.5888 9.24372 62.6196 11.68 62.1841 13.0109H62.1615C62.1319 12.5819 61.7803 9.24302 61.7803 9.24302H60.1505L61.0836 14.2777C61.1062 14.3897 61.0949 14.4567 61.0498 14.5356C60.8698 14.8829 60.5662 15.219 60.2069 15.4656C59.9147 15.679 59.5893 15.8136 59.3316 15.9031L59.758 17.2157C60.0721 17.148 60.7236 16.8902 61.2742 16.3744C61.9822 15.7129 62.6338 14.6927 63.3072 13.3026L65.206 9.24302L63.5888 9.24372Z" fill="#2D2523"/>
    <path d="M40.2254 22.5336C40.2254 21.6529 39.6663 21.3415 38.7388 21.1196C38.0527 20.9547 37.8875 20.7899 37.8875 20.4411C37.8875 20.105 38.1289 19.8894 38.58 19.8894C38.9993 19.8894 39.2534 20.1241 39.3296 20.5109L40.1301 20.4031C40.0285 19.7309 39.5139 19.2427 38.5863 19.2427C37.6652 19.2427 37.0743 19.7626 37.0743 20.5045C37.0743 21.2971 37.5381 21.6529 38.4974 21.8742C39.1581 22.0327 39.3805 22.1982 39.3805 22.6097C39.3805 22.9902 39.0755 23.2508 38.6245 23.2508C38.0336 23.2508 37.824 22.8887 37.7605 22.4702L36.9346 22.578C37.0362 23.2692 37.5508 23.8969 38.6181 23.8969C39.6028 23.8969 40.2254 23.3199 40.2254 22.5336ZM41.3153 23.8335H44.1296V23.155H42.1729V21.8234H43.6729V21.183H42.1736V19.9782H44.028V19.2997H41.316L41.3153 23.8335ZM48.6522 22.4195L47.8454 22.2997C47.7692 22.7619 47.4515 23.1994 46.8797 23.1994C46.2127 23.1994 45.8315 22.7048 45.8315 21.8044V21.3162C45.8315 20.4221 46.2381 19.9212 46.8734 19.9212C47.3943 19.9212 47.6802 20.2699 47.7501 20.7708L48.6141 20.6567C48.5061 19.8514 47.9223 19.2427 46.8797 19.2427C45.768 19.2427 44.9357 20.048 44.9357 21.3288V21.8044C44.9357 23.0979 45.6473 23.8969 46.8797 23.8969C48.0233 23.8969 48.5442 23.0726 48.6522 22.4195ZM52.1908 19.2997V22.1341C52.1908 22.9267 51.9049 23.2057 51.3332 23.2057C50.736 23.2057 50.5009 22.8957 50.5009 22.1722V19.2997H49.6306V22.2236C49.6306 23.3262 50.2532 23.8969 51.3205 23.8969C52.4449 23.8969 53.0548 23.3009 53.0548 22.1849V19.2997H52.1908ZM54.3042 23.8335H55.1619V21.9756H55.7407L56.7692 23.8335H57.6967L56.5722 21.8424C57.0875 21.6966 57.4687 21.3605 57.4687 20.6884V20.5933C57.4687 19.6992 56.8454 19.2997 55.848 19.2997H54.3042V23.8335ZM55.1619 21.3796V19.9655H55.8416C56.3308 19.9655 56.6167 20.1367 56.6167 20.6123V20.7011C56.6167 21.164 56.3499 21.3796 55.8353 21.3796H55.1619ZM58.6482 23.8335H61.4626V23.155H59.5059V21.8234H61.0052V21.183H59.5059V19.9782H61.3609V19.2997H58.6482V23.8335Z" fill="black" fill-opacity="0.6"/>
    <path d="M20.6595 10.4273C20.6535 10.3897 20.635 10.3551 20.607 10.3292C20.579 10.3033 20.543 10.2875 20.5049 10.2843C20.4414 10.2787 19.1885 10.2597 19.1885 10.2597C19.1885 10.2597 18.1409 9.24441 18.0379 9.14085C17.9341 9.03798 17.7315 9.06898 17.6532 9.09223L17.1266 9.25498C17.0615 9.04184 16.9771 8.83503 16.8746 8.6371C16.5019 7.92691 15.9555 7.55139 15.2955 7.54998H15.2934C15.2475 7.54998 15.2017 7.55491 15.1558 7.55844C15.1365 7.53497 15.1168 7.51195 15.0965 7.48939C14.8092 7.18291 14.44 7.03285 13.9988 7.04623C13.1461 7.07089 12.2977 7.68526 11.6087 8.7766C11.1245 9.54455 10.756 10.5098 10.6515 11.2566L8.97295 11.7751C8.47883 11.9301 8.4633 11.9449 8.39906 12.4099C8.35106 12.7615 7.05859 22.7386 7.05859 22.7386L17.8918 24.6084L22.588 23.4438C22.588 23.4438 20.6715 10.5154 20.6595 10.4273ZM16.5845 9.42266L15.7445 9.68264C15.7374 9.25146 15.6866 8.6526 15.4854 8.13476C16.132 8.25664 16.4504 8.98726 16.5845 9.42266ZM15.1769 9.85807L13.3685 10.4168C13.5428 9.74887 13.8746 9.08378 14.2819 8.64766C14.4329 8.48562 14.6447 8.30455 14.896 8.20098C15.1318 8.69205 15.1826 9.38744 15.1769 9.85807ZM14.0158 7.61269C14.2155 7.60846 14.3842 7.65214 14.5282 7.74655C14.2981 7.86632 14.0751 8.03753 13.8661 8.26087C13.3247 8.84071 12.9097 9.74041 12.7445 10.6091L11.2586 11.0685C11.5522 9.70166 12.7 7.65073 14.0158 7.61269Z" fill="#2D2523"/>
    <path d="M20.5058 10.2856C20.067 10.2753 19.6281 10.2671 19.1893 10.2609C19.1893 10.2609 18.1418 9.2457 18.0387 9.14213C17.9984 9.10479 17.9472 9.08133 17.8926 9.0752L17.8933 24.6083L22.5881 23.4451C22.5881 23.4451 20.6723 10.5174 20.6603 10.4279C20.6545 10.3901 20.636 10.3554 20.608 10.3293C20.5799 10.3033 20.5439 10.2874 20.5058 10.2842V10.2856Z" fill="#2D2523"/>
    <path d="M15.2895 12.6941L14.7446 14.7302C14.7446 14.7302 14.1368 14.454 13.4154 14.4998C12.358 14.5668 12.3467 15.2326 12.358 15.3988C12.4152 16.3098 14.8159 16.5085 14.9507 18.6419C15.0566 20.3201 14.0585 21.4678 12.6213 21.5587C10.8954 21.6672 9.94531 20.6512 9.94531 20.6512L10.311 19.0991C10.311 19.0991 11.2667 19.8192 12.0326 19.7705C12.5324 19.7388 12.711 19.3337 12.6933 19.0463C12.6178 17.8584 10.6632 17.9282 10.5404 15.9766C10.4359 14.3343 11.5166 12.6694 13.9011 12.5194C14.8201 12.4602 15.2895 12.6941 15.2895 12.6941Z" fill="white"/>
    <path d="M27.5293 5.63623H28.2352V25.3635H27.5293V5.63623Z" fill="#A4A4A4"/>
  </g>
  <defs>
    <clipPath id="clip0_710_713">
      <rect width="72" height="31" fill="white"/>
    </clipPath>
  </defs>
</svg>