<svg xmlns="http://www.w3.org/2000/svg" width="14" height="14" viewBox="0 0 14 14" fill="none">
  <path d="M13.2009 6.69587C13.8676 6.10856 13.4945 5.00833 12.608 4.94778L9.82343 4.7576C9.4349 4.73107 9.09712 4.48138 8.95778 4.11773L7.93061 1.43703C7.60251 0.580764 6.39111 0.580766 6.06302 1.43703L5.03583 4.11778C4.8965 4.48141 4.55875 4.73108 4.17025 4.75765L1.38934 4.94778C0.503244 5.00837 0.129979 6.10787 0.79605 6.6954L3.00032 8.63973C3.27934 8.88584 3.39865 9.26651 3.31004 9.62785L2.59831 12.53C2.38194 13.4123 3.35906 14.1027 4.11841 13.6041L6.44793 12.0744C6.78114 11.8556 7.21248 11.8556 7.5457 12.0744L9.87525 13.6041C10.6346 14.1027 11.6117 13.4123 11.3953 12.53L10.6837 9.62832C10.5951 9.26673 10.7146 8.88581 10.994 8.63973L13.2009 6.69587Z" fill="#181D23"/>
</svg>