<svg xmlns="http://www.w3.org/2000/svg" width="16" height="16" viewBox="0 0 16 16" fill="none">
  <path fill-rule="evenodd" clip-rule="evenodd" d="M10.7593 4.20419C10.7593 4.89363 10.4683 5.55484 9.95025 6.04234C9.43222 6.52985 8.72962 6.80373 7.99702 6.80373C7.26441 6.80373 6.56181 6.52985 6.04378 6.04234C5.52575 5.55484 5.23472 4.89363 5.23472 4.20419C5.23472 3.51475 5.52575 2.85355 6.04378 2.36604C6.56181 1.87853 7.26441 1.60465 7.99702 1.60465C8.72962 1.60465 9.43222 1.87853 9.95025 2.36604C10.4683 2.85355 10.7593 3.51475 10.7593 4.20419ZM12.4644 4.20419C12.4644 4.75629 12.3489 5.30299 12.1244 5.81307C11.8999 6.32314 11.5708 6.78661 11.156 7.17701C10.7411 7.5674 10.2486 7.87708 9.70662 8.08836C9.16461 8.29964 8.58369 8.40839 7.99702 8.40839C7.41035 8.40839 6.82942 8.29964 6.28741 8.08836C5.7454 7.87708 5.25291 7.5674 4.83808 7.17701C4.42324 6.78661 4.09417 6.32314 3.86966 5.81307C3.64515 5.30299 3.5296 4.75629 3.5296 4.20419C3.5296 3.08917 4.00027 2.01982 4.83808 1.23138C5.67588 0.44294 6.81218 0 7.99702 0C9.18185 0 10.3182 0.44294 11.156 1.23138C11.9938 2.01982 12.4644 3.08917 12.4644 4.20419ZM1.70512 15.1977C1.70512 13.7663 2.37012 12.6527 3.46566 11.8736C4.58251 11.0801 6.1768 10.6188 7.99957 10.6188C9.8232 10.6188 11.4175 11.0801 12.5335 11.8736C13.6299 12.6519 14.2949 13.7671 14.2949 15.1977C14.2949 15.4105 14.3847 15.6145 14.5446 15.765C14.7045 15.9155 14.9213 16 15.1474 16C15.3736 16 15.5904 15.9155 15.7503 15.765C15.9102 15.6145 16 15.4105 16 15.1977C16 13.232 15.0562 11.6554 13.5617 10.5931C12.0867 9.54528 10.1071 9.01414 7.99957 9.01414C5.89204 9.01414 3.9124 9.54528 2.43832 10.5931C0.942932 11.6554 0 13.2328 0 15.1977C0 15.4105 0.089823 15.6145 0.249709 15.765C0.409595 15.9155 0.626447 16 0.85256 16C1.07867 16 1.29553 15.9155 1.45541 15.765C1.6153 15.6145 1.70512 15.4105 1.70512 15.1977Z" fill="#F3F3F3"/>
</svg>