<svg xmlns="http://www.w3.org/2000/svg" width="30" height="19" viewBox="0 0 30 19" fill="none">
  <path opacity="0.07" d="M27.3145 0H3.23533C1.95612 0 0.977905 0.978218 0.977905 2.25743V15.802C0.977905 17.0812 2.03137 18.0594 3.23533 18.0594H27.3145C28.5937 18.0594 29.572 17.0812 29.572 15.802V2.25743C29.572 0.978218 28.5185 0 27.3145 0Z" fill="#181D23"/>
  <path d="M27.3144 0.752441C28.1421 0.752441 28.8193 1.42967 28.8193 2.25739V15.8019C28.8193 16.6297 28.1421 17.3069 27.3144 17.3069H3.23518C2.40745 17.3069 1.73022 16.6297 1.73022 15.8019V2.25739C1.73022 1.42967 2.40745 0.752441 3.23518 0.752441H27.3144Z" fill="white"/>
  <path d="M22.2724 7.59973H22.0467C21.7457 8.3522 21.5199 8.72844 21.2942 9.85716H22.7239C22.4982 8.72844 22.4982 8.20171 22.2724 7.59973ZM24.4546 12.0393H23.1754C23.1001 12.0393 23.1001 12.0393 23.0249 11.9641L22.8744 11.2869L22.7992 11.1364H20.9932C20.918 11.1364 20.8427 11.1364 20.8427 11.2869L20.617 11.9641C20.617 12.0393 20.5417 12.0393 20.5417 12.0393H18.9615L19.112 11.6631L21.2942 6.54626C21.2942 6.17003 21.5199 6.01953 21.8962 6.01953H23.0249C23.1001 6.01953 23.1754 6.01953 23.1754 6.17003L24.2289 11.0611C24.3041 11.3621 24.3794 11.5878 24.3794 11.8888C24.4546 11.9641 24.4546 11.9641 24.4546 12.0393ZM14.3714 11.8136L14.6724 10.4591C14.7477 10.4591 14.8229 10.5344 14.8229 10.5344C15.3496 10.7601 15.8764 10.9106 16.4031 10.8354C16.5536 10.8354 16.7794 10.7601 16.9298 10.6849C17.3061 10.5344 17.3061 10.1581 17.0051 9.85716C16.8546 9.70666 16.6289 9.63141 16.4031 9.48092C16.1021 9.33042 15.8011 9.17993 15.5754 8.95418C14.6724 8.20171 14.9734 7.14824 15.5001 6.62151C15.9516 6.32052 16.1774 6.01953 16.7794 6.01953C17.6823 6.01953 18.6605 6.01953 19.112 6.17003H19.1873C19.112 6.62151 19.0368 6.99775 18.8863 7.44923C18.51 7.29874 18.1338 7.14824 17.7576 7.14824C17.5318 7.14824 17.3061 7.14824 17.0803 7.22349C16.9298 7.22349 16.8546 7.29874 16.7794 7.37399C16.6289 7.52448 16.6289 7.75022 16.7794 7.90072L17.1556 8.20171C17.4566 8.3522 17.7576 8.5027 17.9833 8.65319C18.3595 8.87894 18.7358 9.25517 18.811 9.70666C18.9615 10.3839 18.7358 10.9859 18.1338 11.4374C17.7576 11.7383 17.6071 11.8888 17.0803 11.8888C16.0269 11.8888 15.1992 11.9641 14.5219 11.7383C14.4467 11.8888 14.4467 11.8888 14.3714 11.8136ZM11.7378 12.0393C11.813 11.5126 11.813 11.5126 11.8883 11.2869C12.2645 9.63141 12.6407 7.90072 12.9417 6.24527C13.017 6.09478 13.017 6.01953 13.1675 6.01953H14.5219C14.3714 6.9225 14.2209 7.59973 13.9952 8.42745C13.7694 9.55616 13.5437 10.6849 13.2427 11.8136C13.2427 11.9641 13.1675 11.9641 13.017 11.9641M4.73975 6.17003C4.73975 6.09478 4.89024 6.01953 4.96549 6.01953H7.5239C7.90014 6.01953 8.20113 6.24527 8.27638 6.62151L8.95361 9.9324C8.95361 10.0076 8.95361 10.0076 9.02886 10.0829C9.02886 10.0076 9.1041 10.0077 9.1041 10.0077L10.6843 6.17003C10.6091 6.09478 10.6843 6.01953 10.7595 6.01953H12.3397C12.3397 6.09478 12.3397 6.09478 12.2645 6.17003L9.93183 11.6631C9.85658 11.8136 9.85658 11.8888 9.78133 11.9641C9.70608 12.0393 9.55559 11.9641 9.40509 11.9641H8.27638C8.20113 11.9641 8.12589 11.9641 8.12589 11.8136L6.92192 7.14824C6.77143 6.99775 6.54569 6.77201 6.2447 6.69676C5.79321 6.47102 4.96549 6.32052 4.81499 6.32052L4.73975 6.17003Z" fill="#142688"/>
</svg>